<?xml version="1.0" standalone="no"?>
<!DOCTYPE svg PUBLIC "-//W3C//DTD SVG 20010904//EN"
 "http://www.w3.org/TR/2001/REC-SVG-20010904/DTD/svg10.dtd">
<svg version="1.0" xmlns="http://www.w3.org/2000/svg"
 width="894.000000pt" height="658.000000pt" viewBox="0 0 894.000000 658.000000"
 preserveAspectRatio="xMidYMid meet">

<g transform="translate(0.000000,658.000000) scale(0.100000,-0.100000)"
fill="#000000" stroke="none">
<path d="M3680 4940 l0 -230 -505 0 -505 0 -78 79 c-42 43 -132 136 -198 205
-67 69 -134 133 -150 141 -33 17 -101 20 -139 5 -34 -13 -1517 -1497 -1539
-1540 -32 -65 -8 -152 53 -198 36 -26 131 -34 169 -13 12 7 326 316 698 687
414 413 680 672 687 667 15 -9 218 -216 660 -677 100 -103 259 -266 352 -361
94 -95 193 -197 221 -226 28 -30 62 -64 77 -76 l27 -23 1047 0 1046 0 32 24
c62 47 82 137 47 202 -16 29 -82 110 -157 191 -16 18 -41 47 -55 64 -14 16
-35 41 -47 53 -11 13 -42 47 -68 77 -45 52 -149 170 -170 193 -5 6 -37 43 -70
81 -33 38 -69 79 -80 91 -21 22 -100 112 -135 154 -60 71 -157 173 -175 183
-13 8 -117 14 -315 17 l-295 5 -3 228 -2 227 -215 0 -215 0 0 -230z"/>
<path fill="#0000CC" d="M2443 3564 c-20 -8 -19 -937 1 -953 9 -8 96 -11 297 -9 l284 3 3 474
c2 366 -1 476 -10 482 -14 9 -556 11 -575 3z"/>
<path fill="#80B3FC" d="M 1833 3564 c -20 -8 -19 -937 1 -953 c 9 -8 96 -11 297 -9 l 284 3 l 3 474 c 2 366 -1 476 -10 482 c -14 9 -556 11 -575 3 z"/>
<path fill="#7DF0DF" d="M 1223 3564 c -20 -8 -19 -937 1 -953 c 9 -8 96 -11 297 -9 l 284 3 l 3 474 c 2 366 -1 476 -10 482 c -14 9 -556 11 -575 3 z"/>
<path d="M3480 3020 c0 -38 4 -50 15 -50 13 0 15 -22 15 -140 0 -118 -2 -140
-15 -140 -11 0 -15 -12 -15 -50 l0 -50 143 0 c136 0 145 1 165 23 18 19 22 36
23 111 1 63 -2 91 -12 96 -10 7 -10 11 1 25 9 11 13 42 12 97 -1 69 -4 84 -23
104 -22 23 -28 24 -166 24 l-143 0 0 -50z m218 -83 c4 -37 -13 -57 -49 -57
-28 0 -29 2 -29 46 l0 45 38 -3 c32 -3 37 -7 40 -31z m0 -190 c4 -37 -15 -59
-47 -55 -23 3 -26 8 -29 46 l-3 43 38 -3 c33 -3 38 -6 41 -31z"/>
<path d="M3870 3020 c0 -38 4 -50 15 -50 13 0 15 -22 15 -140 0 -118 -2 -140
-15 -140 -11 0 -15 -12 -15 -50 l0 -50 165 0 165 0 0 75 0 75 -55 0 c-52 0
-55 -1 -55 -25 0 -22 -4 -25 -40 -25 l-40 0 0 45 0 45 40 0 40 0 0 50 0 50
-40 0 -40 0 0 45 0 45 40 0 c36 0 40 -2 40 -25 0 -24 3 -25 55 -25 l55 0 0 75
0 75 -165 0 -165 0 0 -50z"/>
<path d="M4260 3020 c0 -38 4 -50 15 -50 13 0 15 -22 15 -140 0 -118 -2 -140
-15 -140 -11 0 -15 -12 -15 -50 l0 -50 165 0 165 0 0 75 0 75 -55 0 c-52 0
-55 -1 -55 -25 0 -22 -4 -25 -40 -25 l-40 0 0 140 c0 118 2 140 15 140 11 0
15 12 15 50 l0 50 -85 0 -85 0 0 -50z"/>
<path d="M4710 3021 c0 -28 5 -51 11 -53 8 -3 3 -43 -15 -134 -14 -71 -26
-133 -26 -137 0 -4 -7 -7 -15 -7 -11 0 -15 -12 -15 -50 l0 -50 85 0 85 0 0 49
c0 33 -5 51 -14 54 -9 4 -12 14 -9 26 7 26 67 30 77 5 10 -25 7 -34 -9 -34
-11 0 -15 -12 -15 -50 l0 -50 85 0 85 0 0 50 c0 35 -4 50 -13 50 -9 0 -22 43
-40 133 -32 155 -31 147 -12 147 11 0 15 12 15 50 l0 50 -130 0 -130 0 0 -49z
m144 -178 c6 -41 5 -43 -20 -43 -22 0 -25 3 -21 23 4 12 9 42 13 67 6 39 8 42
14 20 4 -14 10 -44 14 -67z"/>
<path d="M5080 3020 c0 -38 4 -50 15 -50 13 0 15 -22 15 -140 0 -118 -2 -140
-15 -140 -11 0 -15 -12 -15 -50 l0 -50 70 0 70 0 0 97 c0 53 3 93 7 90 4 -4
23 -47 43 -95 l36 -87 72 -3 72 -3 0 51 c0 38 -4 50 -15 50 -13 0 -15 22 -15
140 0 118 2 140 15 140 11 0 15 12 15 50 l0 50 -70 0 -69 0 -3 -107 -3 -107
-44 107 -44 107 -68 0 -69 0 0 -50z"/>
<path d="M5542 3047 c-21 -22 -22 -32 -22 -213 l0 -190 28 -27 c27 -26 33 -27
127 -27 94 0 100 1 127 27 l28 27 0 185 0 185 -27 28 c-26 27 -30 28 -133 28
-98 0 -108 -2 -128 -23z m166 -214 c2 -125 2 -132 -18 -138 -11 -3 -29 -3 -40
0 -19 6 -20 15 -20 134 0 70 3 131 7 135 4 4 21 6 38 4 l30 -3 3 -132z"/>
<path d="M5880 3020 c0 -42 3 -50 19 -50 20 0 23 -8 58 -184 14 -69 15 -90 5
-94 -7 -2 -12 -23 -12 -53 l0 -49 130 0 130 0 0 50 c0 37 -4 50 -15 50 -11 0
-13 8 -8 33 4 17 16 79 28 137 18 93 23 105 43 108 19 3 22 9 22 53 l0 49 -86
0 -86 0 5 -62 c4 -55 -9 -166 -30 -248 -11 -47 -42 156 -36 238 l6 72 -87 0
-86 0 0 -50z"/>
<path d="M6350 3021 c0 -29 5 -51 12 -53 8 -3 4 -40 -15 -134 -15 -71 -27
-132 -27 -136 0 -5 -7 -8 -15 -8 -11 0 -15 -12 -15 -50 l0 -50 85 0 85 0 0 50
c0 39 -3 50 -16 50 -11 0 -14 5 -10 16 3 9 6 20 6 25 0 16 67 10 74 -7 10 -25
7 -34 -9 -34 -11 0 -15 -12 -15 -50 l0 -50 85 0 85 0 0 46 c0 29 -6 51 -14 58
-8 6 -26 66 -40 134 -30 144 -30 142 -11 142 11 0 15 12 15 50 l0 50 -130 0
-130 0 0 -49z m144 -178 c6 -41 5 -43 -20 -43 -22 0 -25 3 -21 23 4 12 9 42
13 67 6 39 8 42 14 20 4 -14 10 -44 14 -67z"/>
<path d="M6940 3020 c0 -38 4 -50 15 -50 13 0 15 -22 15 -135 0 -111 -3 -137
-15 -141 -11 -4 -15 -21 -15 -55 l0 -49 85 0 85 0 0 50 c0 38 -4 50 -15 50
-13 0 -15 22 -15 140 0 118 2 140 15 140 11 0 15 12 15 50 l0 50 -85 0 -85 0
0 -50z"/>
<path d="M7160 3020 c0 -38 4 -50 15 -50 13 0 15 -22 15 -140 0 -118 -2 -140
-15 -140 -11 0 -15 -12 -15 -50 l0 -50 70 0 70 0 0 97 c0 53 3 93 7 90 4 -4
23 -47 43 -95 l36 -87 72 -3 72 -3 0 51 c0 38 -4 50 -15 50 -13 0 -15 22 -15
140 0 118 2 140 15 140 11 0 15 12 15 50 l0 50 -70 0 -69 0 -3 -107 -3 -107
-44 107 -44 107 -68 0 -69 0 0 -50z"/>
<path d="M7622 3047 c-21 -22 -22 -32 -22 -213 l0 -190 28 -27 c27 -26 33 -27
127 -27 94 0 100 1 127 27 23 22 28 35 28 75 l0 48 -60 0 c-53 0 -60 -2 -60
-20 0 -24 -44 -38 -65 -20 -12 10 -15 39 -15 136 0 123 0 124 25 130 34 8 55
-1 55 -26 0 -18 6 -20 60 -20 l60 0 0 47 c0 37 -6 53 -27 75 -26 27 -30 28
-133 28 -98 0 -108 -2 -128 -23z"/>
<path d="M7960 2640 l0 -50 50 0 50 0 0 50 0 50 -50 0 -50 0 0 -50z"/>
<path d="M1228 2458 c-2 -46 -2 -86 0 -90 2 -5 403 -8 893 -8 l889 0 0 90 0
90 -889 0 -889 0 -4 -82z"/>
<path d="M1230 2230 c0 -89 46 -167 120 -201 92 -44 75 -41 340 -58 140 -10
178 -20 217 -63 53 -59 82 -281 63 -493 -7 -77 -16 -147 -20 -155 -4 -8 -14
-56 -21 -107 -16 -117 -3 -185 45 -237 18 -20 37 -36 43 -36 6 0 13 -4 15 -10
5 -17 95 -28 142 -18 59 12 132 82 142 135 4 21 11 44 16 50 10 13 9 21 -12
138 -5 33 -12 71 -15 85 -2 14 -6 34 -10 45 -24 87 -20 504 5 529 6 6 10 20
10 32 0 21 7 30 43 60 35 29 70 37 196 45 170 9 263 20 276 29 6 4 25 11 43
15 17 3 32 10 32 14 0 4 10 13 23 20 12 7 36 33 52 58 24 38 29 57 29 112 l1
66 -887 3 -888 2 0 -60z m955 -1145 c30 -30 32 -58 4 -96 -16 -23 -28 -29 -56
-29 -70 0 -101 87 -47 129 35 28 69 26 99 -4z"/>
</g>
</svg>
